<svg width="134" height="36" viewBox="0 0 134 36" fill="none" xmlns="http://www.w3.org/2000/svg">
<path d="M7.56 13.008C10.424 13.008 12.552 13.728 13.944 15.168C15.336 16.592 16.032 18.64 16.032 21.312C16.032 23.056 15.688 24.584 15 25.896C14.328 27.192 13.344 28.2 12.048 28.92C10.752 29.64 9.184 30 7.344 30C7.104 30 6.784 29.992 6.384 29.976C5.984 29.96 5.568 29.952 5.136 29.952C4.72 29.936 4.336 29.928 3.984 29.928C3.424 29.928 2.872 29.936 2.328 29.952C1.784 29.952 1.344 29.968 1.008 30V29.52C1.552 29.488 1.96 29.424 2.232 29.328C2.52 29.232 2.712 29.04 2.808 28.752C2.904 28.464 2.952 28.032 2.952 27.456V15.552C2.952 14.96 2.904 14.528 2.808 14.256C2.712 13.968 2.52 13.776 2.232 13.68C1.96 13.568 1.552 13.504 1.008 13.488V13.008C1.344 13.024 1.784 13.048 2.328 13.08C2.872 13.096 3.408 13.096 3.936 13.08C4.496 13.064 5.128 13.048 5.832 13.032C6.536 13.016 7.112 13.008 7.56 13.008ZM6.96 13.44C6.224 13.44 5.744 13.576 5.52 13.848C5.296 14.12 5.184 14.672 5.184 15.504V27.504C5.184 28.336 5.296 28.888 5.52 29.16C5.76 29.432 6.248 29.568 6.984 29.568C8.728 29.568 10.08 29.256 11.04 28.632C12 27.992 12.672 27.064 13.056 25.848C13.44 24.632 13.632 23.152 13.632 21.408C13.632 19.616 13.416 18.136 12.984 16.968C12.568 15.784 11.872 14.904 10.896 14.328C9.936 13.736 8.624 13.44 6.96 13.44ZM23.9198 17.304C24.9438 17.304 25.8638 17.528 26.6798 17.976C27.4958 18.424 28.1438 19.128 28.6238 20.088C29.1198 21.048 29.3678 22.296 29.3678 23.832C29.3678 25.368 29.1198 26.616 28.6238 27.576C28.1438 28.52 27.4958 29.216 26.6798 29.664C25.8638 30.112 24.9438 30.336 23.9198 30.336C22.9118 30.336 21.9918 30.112 21.1598 29.664C20.3438 29.216 19.6878 28.52 19.1918 27.576C18.7118 26.616 18.4718 25.368 18.4718 23.832C18.4718 22.296 18.7118 21.048 19.1918 20.088C19.6878 19.128 20.3438 18.424 21.1598 17.976C21.9918 17.528 22.9118 17.304 23.9198 17.304ZM23.9198 17.784C23.0078 17.784 22.2558 18.256 21.6638 19.2C21.0878 20.144 20.7998 21.688 20.7998 23.832C20.7998 25.976 21.0878 27.52 21.6638 28.464C22.2558 29.392 23.0078 29.856 23.9198 29.856C24.8318 29.856 25.5758 29.392 26.1518 28.464C26.7438 27.52 27.0398 25.976 27.0398 23.832C27.0398 21.688 26.7438 20.144 26.1518 19.2C25.5758 18.256 24.8318 17.784 23.9198 17.784ZM37.1882 17.304C37.7002 17.304 38.1962 17.368 38.6762 17.496C39.1562 17.624 39.5882 17.816 39.9722 18.072C40.3402 18.312 40.6202 18.592 40.8122 18.912C41.0042 19.216 41.1002 19.552 41.1002 19.92C41.1002 20.352 40.9802 20.688 40.7402 20.928C40.5002 21.152 40.1962 21.264 39.8282 21.264C39.4762 21.264 39.1642 21.16 38.8922 20.952C38.6362 20.744 38.5082 20.448 38.5082 20.064C38.5082 19.696 38.6042 19.4 38.7962 19.176C39.0042 18.952 39.2442 18.808 39.5162 18.744C39.3562 18.456 39.0682 18.216 38.6522 18.024C38.2522 17.832 37.8202 17.736 37.3562 17.736C36.9562 17.736 36.5562 17.832 36.1562 18.024C35.7562 18.216 35.3882 18.536 35.0522 18.984C34.7162 19.416 34.4442 20.016 34.2362 20.784C34.0282 21.536 33.9242 22.48 33.9242 23.616C33.9242 25.024 34.0842 26.144 34.4042 26.976C34.7242 27.808 35.1402 28.408 35.6522 28.776C36.1802 29.128 36.7562 29.304 37.3802 29.304C37.7962 29.304 38.2202 29.224 38.6522 29.064C39.0842 28.904 39.4922 28.648 39.8762 28.296C40.2602 27.928 40.5882 27.44 40.8602 26.832L41.3162 27C41.1562 27.512 40.8922 28.032 40.5242 28.56C40.1562 29.072 39.6762 29.496 39.0842 29.832C38.4922 30.168 37.7642 30.336 36.9002 30.336C35.9082 30.336 35.0122 30.08 34.2122 29.568C33.4122 29.056 32.7722 28.328 32.2922 27.384C31.8282 26.424 31.5962 25.288 31.5962 23.976C31.5962 22.664 31.8282 21.512 32.2922 20.52C32.7722 19.512 33.4362 18.728 34.2842 18.168C35.1322 17.592 36.1002 17.304 37.1882 17.304ZM46.7241 13.656V17.664H50.2761V18.144H46.7241V27.432C46.7241 28.184 46.8601 28.712 47.1321 29.016C47.4041 29.32 47.7801 29.472 48.2601 29.472C48.7401 29.472 49.1561 29.28 49.5081 28.896C49.8601 28.496 50.1641 27.832 50.4201 26.904L50.9001 27.024C50.7401 27.952 50.4201 28.736 49.9401 29.376C49.4761 30.016 48.7561 30.336 47.7801 30.336C47.2361 30.336 46.7881 30.264 46.4361 30.12C46.0841 29.992 45.7721 29.8 45.5001 29.544C45.1481 29.176 44.9001 28.736 44.7561 28.224C44.6281 27.712 44.5641 27.032 44.5641 26.184V18.144H42.2601V17.664H44.5641V13.992C44.9641 13.976 45.3481 13.944 45.7161 13.896C46.0841 13.848 46.4201 13.768 46.7241 13.656ZM57.2244 17.304C58.2484 17.304 59.1684 17.528 59.9844 17.976C60.8004 18.424 61.4484 19.128 61.9284 20.088C62.4244 21.048 62.6724 22.296 62.6724 23.832C62.6724 25.368 62.4244 26.616 61.9284 27.576C61.4484 28.52 60.8004 29.216 59.9844 29.664C59.1684 30.112 58.2484 30.336 57.2244 30.336C56.2164 30.336 55.2964 30.112 54.4644 29.664C53.6484 29.216 52.9924 28.52 52.4964 27.576C52.0164 26.616 51.7764 25.368 51.7764 23.832C51.7764 22.296 52.0164 21.048 52.4964 20.088C52.9924 19.128 53.6484 18.424 54.4644 17.976C55.2964 17.528 56.2164 17.304 57.2244 17.304ZM57.2244 17.784C56.3124 17.784 55.5604 18.256 54.9684 19.2C54.3924 20.144 54.1044 21.688 54.1044 23.832C54.1044 25.976 54.3924 27.52 54.9684 28.464C55.5604 29.392 56.3124 29.856 57.2244 29.856C58.1364 29.856 58.8804 29.392 59.4564 28.464C60.0484 27.52 60.3444 25.976 60.3444 23.832C60.3444 21.688 60.0484 20.144 59.4564 19.2C58.8804 18.256 58.1364 17.784 57.2244 17.784ZM71.9569 17.304C72.3889 17.304 72.7649 17.392 73.0849 17.568C73.4209 17.744 73.6769 17.976 73.8529 18.264C74.0449 18.536 74.1409 18.848 74.1409 19.2C74.1409 19.6 74.0129 19.952 73.7569 20.256C73.5169 20.56 73.1889 20.712 72.7729 20.712C72.4369 20.712 72.1409 20.608 71.8849 20.4C71.6289 20.176 71.5009 19.864 71.5009 19.464C71.5009 19.16 71.5809 18.904 71.7409 18.696C71.9169 18.472 72.1089 18.296 72.3169 18.168C72.2049 18.008 72.0369 17.928 71.8129 17.928C71.3169 17.928 70.8609 18.08 70.4449 18.384C70.0289 18.672 69.6769 19.048 69.3889 19.512C69.1009 19.976 68.8769 20.472 68.7169 21C68.5569 21.512 68.4769 21.992 68.4769 22.44V27.528C68.4769 28.312 68.7009 28.84 69.1489 29.112C69.6129 29.368 70.2369 29.496 71.0209 29.496V30C70.6529 29.984 70.1329 29.968 69.4609 29.952C68.7889 29.92 68.0769 29.904 67.3249 29.904C66.7809 29.904 66.2369 29.92 65.6929 29.952C65.1649 29.968 64.7649 29.984 64.4929 30V29.496C65.1489 29.496 65.6129 29.376 65.8849 29.136C66.1729 28.896 66.3169 28.44 66.3169 27.768V20.256C66.3169 19.536 66.1889 19.008 65.9329 18.672C65.6769 18.32 65.1969 18.144 64.4929 18.144V17.64C65.0049 17.688 65.5009 17.712 65.9809 17.712C66.4449 17.712 66.8849 17.688 67.3009 17.64C67.7329 17.576 68.1249 17.488 68.4769 17.376V20.376C68.6529 19.912 68.9009 19.448 69.2209 18.984C69.5569 18.504 69.9569 18.104 70.4209 17.784C70.8849 17.464 71.3969 17.304 71.9569 17.304ZM75.3484 13.008C75.7484 13.024 76.2604 13.04 76.8844 13.056C77.5084 13.072 78.1324 13.08 78.7564 13.08C79.5404 13.08 80.2844 13.072 80.9884 13.056C81.6924 13.04 82.1884 13.032 82.4764 13.032C84.6204 13.032 86.2124 13.472 87.2524 14.352C88.3084 15.232 88.8364 16.368 88.8364 17.76C88.8364 18.336 88.7324 18.944 88.5244 19.584C88.3164 20.208 87.9564 20.792 87.4444 21.336C86.9324 21.864 86.2284 22.296 85.3324 22.632C84.4524 22.968 83.3244 23.136 81.9484 23.136H79.5484V22.656H81.7084C82.7164 22.656 83.4844 22.44 84.0124 22.008C84.5564 21.576 84.9164 21.008 85.0924 20.304C85.2844 19.6 85.3804 18.84 85.3804 18.024C85.3804 16.504 85.1324 15.368 84.6364 14.616C84.1404 13.864 83.2844 13.488 82.0684 13.488C81.4124 13.488 80.9804 13.624 80.7724 13.896C80.5804 14.168 80.4844 14.72 80.4844 15.552V27.36C80.4844 27.968 80.5484 28.424 80.6764 28.728C80.8044 29.032 81.0524 29.232 81.4204 29.328C81.7884 29.424 82.3164 29.48 83.0044 29.496V30C82.5404 29.968 81.9404 29.952 81.2044 29.952C80.4684 29.936 79.7084 29.928 78.9244 29.928C78.2524 29.928 77.6044 29.936 76.9804 29.952C76.3564 29.952 75.8124 29.968 75.3484 30V29.52C75.8764 29.488 76.2684 29.424 76.5244 29.328C76.7964 29.232 76.9724 29.04 77.0524 28.752C77.1484 28.464 77.1964 28.032 77.1964 27.456V15.552C77.1964 14.96 77.1484 14.528 77.0524 14.256C76.9724 13.968 76.7964 13.776 76.5244 13.68C76.2684 13.568 75.8764 13.504 75.3484 13.488V13.008ZM94.3157 11.208V27.768C94.3157 28.44 94.4357 28.896 94.6757 29.136C94.9317 29.376 95.3557 29.496 95.9477 29.496V30C95.6597 29.984 95.2197 29.968 94.6277 29.952C94.0517 29.92 93.4597 29.904 92.8517 29.904C92.2597 29.904 91.6517 29.92 91.0277 29.952C90.4197 29.968 89.9637 29.984 89.6597 30V29.496C90.2517 29.496 90.6677 29.376 90.9077 29.136C91.1637 28.896 91.2917 28.44 91.2917 27.768V14.088C91.2917 13.368 91.1797 12.84 90.9557 12.504C90.7317 12.152 90.2997 11.976 89.6597 11.976V11.472C90.1717 11.52 90.6677 11.544 91.1477 11.544C91.7557 11.544 92.3237 11.52 92.8517 11.472C93.3797 11.408 93.8677 11.32 94.3157 11.208ZM108.661 17.328V27.408C108.661 28.128 108.781 28.664 109.021 29.016C109.261 29.352 109.685 29.52 110.293 29.52V30.024C109.797 29.976 109.301 29.952 108.805 29.952C108.213 29.952 107.645 29.976 107.101 30.024C106.573 30.072 106.085 30.16 105.637 30.288V27.888C105.237 28.768 104.685 29.4 103.981 29.784C103.293 30.152 102.549 30.336 101.749 30.336C101.125 30.336 100.597 30.248 100.165 30.072C99.7493 29.912 99.4133 29.688 99.1573 29.4C98.8853 29.096 98.6933 28.696 98.5813 28.2C98.4693 27.704 98.4133 27.064 98.4133 26.28V20.208C98.4133 19.488 98.2933 18.96 98.0533 18.624C97.8293 18.272 97.4053 18.096 96.7813 18.096V17.592C97.2933 17.64 97.7893 17.664 98.2693 17.664C98.8613 17.664 99.4213 17.64 99.9493 17.592C100.493 17.528 100.989 17.44 101.437 17.328V27.12C101.437 27.552 101.469 27.936 101.533 28.272C101.613 28.608 101.765 28.88 101.989 29.088C102.213 29.28 102.549 29.376 102.997 29.376C103.493 29.376 103.941 29.232 104.341 28.944C104.741 28.656 105.053 28.264 105.277 27.768C105.517 27.272 105.637 26.712 105.637 26.088V20.208C105.637 19.488 105.517 18.96 105.277 18.624C105.053 18.272 104.629 18.096 104.005 18.096V17.592C104.517 17.64 105.013 17.664 105.493 17.664C106.085 17.664 106.645 17.64 107.173 17.592C107.717 17.528 108.213 17.44 108.661 17.328ZM115.974 17.256C116.646 17.256 117.222 17.352 117.702 17.544C118.182 17.736 118.534 17.904 118.758 18.048C119.302 18.448 119.63 18.192 119.742 17.28H120.27C120.238 17.744 120.214 18.296 120.198 18.936C120.182 19.56 120.174 20.4 120.174 21.456H119.646C119.566 20.864 119.414 20.288 119.19 19.728C118.966 19.168 118.638 18.704 118.206 18.336C117.774 17.952 117.206 17.76 116.502 17.76C116.006 17.76 115.59 17.904 115.254 18.192C114.934 18.48 114.774 18.888 114.774 19.416C114.774 19.896 114.918 20.32 115.206 20.688C115.494 21.04 115.862 21.376 116.31 21.696C116.774 22 117.254 22.336 117.75 22.704C118.326 23.088 118.838 23.48 119.286 23.88C119.734 24.264 120.094 24.696 120.366 25.176C120.638 25.64 120.774 26.192 120.774 26.832C120.774 27.568 120.566 28.2 120.15 28.728C119.75 29.24 119.214 29.64 118.542 29.928C117.886 30.2 117.158 30.336 116.358 30.336C115.926 30.336 115.534 30.296 115.182 30.216C114.83 30.136 114.518 30.032 114.246 29.904C114.038 29.792 113.846 29.688 113.67 29.592C113.51 29.496 113.342 29.416 113.166 29.352C113.006 29.272 112.862 29.304 112.734 29.448C112.622 29.592 112.534 29.832 112.47 30.168H111.942C111.974 29.656 111.998 29.032 112.014 28.296C112.03 27.56 112.038 26.584 112.038 25.368H112.566C112.678 26.248 112.846 27.024 113.07 27.696C113.31 28.352 113.654 28.872 114.102 29.256C114.55 29.624 115.126 29.808 115.83 29.808C116.134 29.808 116.422 29.744 116.694 29.616C116.982 29.488 117.214 29.288 117.39 29.016C117.582 28.744 117.678 28.376 117.678 27.912C117.678 27.208 117.438 26.624 116.958 26.16C116.478 25.696 115.878 25.2 115.158 24.672C114.614 24.272 114.102 23.88 113.622 23.496C113.158 23.112 112.774 22.68 112.47 22.2C112.182 21.72 112.038 21.152 112.038 20.496C112.038 19.776 112.222 19.184 112.59 18.72C112.958 18.24 113.438 17.88 114.03 17.64C114.638 17.384 115.286 17.256 115.974 17.256Z" fill="white"/>
<path d="M125.703 18.0767V8.47443H127.614V18.0767H125.703ZM121.861 14.2273V12.3168H131.463V14.2273H121.861Z" fill="white"/>
</svg>
